<svg width="140" height="184" viewBox="0 0 140 184" fill="none" xmlns="http://www.w3.org/2000/svg">
<path d="M79.9949 30.6126C88.3272 59.5256 82.1728 91.7937 97.15 118.897C106.012 132.756 110.078 150.924 104.475 166.774C100.55 178.284 87.3725 183.748 76.0018 181.505C63.5003 179.967 54.9902 168.794 51.6878 157.354C46.9344 142.97 45.5196 124.382 39.4577 110.351C34.5278 97.3761 24.9717 90.2226 11.121 73.307C-1.97568 51.5132 -2.05757 25.0988 18.0439 9.49988C29.2714 0.40109 48.3109 -0.44518 60.055 7.10241C68.9521 12.5458 76.1226 20.8915 79.9949 30.6126Z" stroke="black" stroke-width="4"/>
<path d="M101.044 86C107.671 86 113.044 80.6274 113.044 74C113.044 67.3726 107.671 62 101.044 62C94.4165 62 89.0439 67.3726 89.0439 74C89.0439 80.6274 94.4165 86 101.044 86Z" fill="black"/>
<path d="M59.5439 71.5C51.5439 69 43.0439 86.6667 40.5439 96C39.3439 93.2 39.7105 82.1667 40.0439 77L40.5439 73.5C44.9439 64.7 51.3772 61.1667 54.0439 60.5H62.5439C70.9439 62.1 78.7105 70.5 81.5439 74.5V79.5L79.0439 82.5H73.5439L59.5439 71.5Z" fill="black" stroke="black"/>
<path d="M103.544 88H101.044C96.244 88.8 96.3773 95.6667 97.044 99C98.244 105.8 104.044 114 111.044 115.5H116.544C130.044 112 136.711 98.8333 138.544 92V83.5C135.344 93.9 124.544 102.167 119.544 105L116.544 105.5C112.044 105.5 109.044 96 106.544 90L105.044 88.5L103.544 88Z" fill="black" stroke="black"/>
<path d="M45.5439 105C41.9439 110.6 47.7106 116.333 51.0439 118.5L14.544 154.5C12.2106 157.667 9.04395 162.5 13.544 160.5C18.622 158.243 49.8773 137.333 65.044 127.5C70.644 128.3 71.3773 131.833 71.044 133.5C66.644 139.1 48.8773 147.5 40.544 151C75.344 148.6 84.7106 138.667 85.044 134V128.5C77.444 116.5 62.2106 106.833 55.544 103.5C49.544 101.1 46.3773 103.5 45.5439 105Z" fill="black" stroke="black"/>
</svg>
